<svg width="28" height="32" viewBox="0 0 28 32" fill="none" xmlns="http://www.w3.org/2000/svg">
<path d="M27.5 25.5V27H0.5V25.5L3.5 22.5V13.5C3.5 8.85 6.545 4.755 11 3.435V3C11 2.20435 11.3161 1.44129 11.8787 0.87868C12.4413 0.31607 13.2044 0 14 0C14.7956 0 15.5587 0.31607 16.1213 0.87868C16.6839 1.44129 17 2.20435 17 3V3.435C21.455 4.755 24.5 8.85 24.5 13.5V22.5L27.5 25.5ZM17 28.5C17 29.2956 16.6839 30.0587 16.1213 30.6213C15.5587 31.1839 14.7956 31.5 14 31.5C13.2044 31.5 12.4413 31.1839 11.8787 30.6213C11.3161 30.0587 11 29.2956 11 28.5" fill="#F0F0F0"/>
</svg>
