<svg width="32" height="32" viewBox="0 0 32 32" fill="none" xmlns="http://www.w3.org/2000/svg">
<path d="M18.81 2.1C17.984 -0.7 14.016 -0.7 13.19 2.1L12.99 2.78C12.8666 3.19919 12.6509 3.58544 12.3588 3.91042C12.0667 4.23541 11.7055 4.49089 11.3018 4.65813C10.8981 4.82537 10.4621 4.90012 10.0257 4.87691C9.58933 4.8537 9.16369 4.73312 8.78 4.524L8.16 4.184C5.594 2.788 2.788 5.594 4.186 8.158L4.524 8.78C5.416 10.42 4.57 12.462 2.78 12.99L2.1 13.19C-0.7 14.016 -0.7 17.984 2.1 18.81L2.78 19.01C3.19919 19.1334 3.58544 19.3491 3.91042 19.6412C4.23541 19.9333 4.49089 20.2945 4.65813 20.6982C4.82537 21.1019 4.90012 21.5379 4.87691 21.9743C4.8537 22.4107 4.73312 22.8363 4.524 23.22L4.184 23.84C2.788 26.406 5.594 29.212 8.158 27.814L8.78 27.476C9.16369 27.2669 9.58933 27.1463 10.0257 27.1231C10.4621 27.0999 10.8981 27.1746 11.3018 27.3419C11.7055 27.5091 12.0667 27.7646 12.3588 28.0896C12.6509 28.4146 12.8666 28.8008 12.99 29.22L13.19 29.9C14.016 32.7 17.984 32.7 18.81 29.9L19.01 29.22C19.1334 28.8008 19.3491 28.4146 19.6412 28.0896C19.9333 27.7646 20.2945 27.5091 20.6982 27.3419C21.1019 27.1746 21.5379 27.0999 21.9743 27.1231C22.4107 27.1463 22.8363 27.2669 23.22 27.476L23.84 27.816C26.406 29.212 29.212 26.406 27.814 23.842L27.476 23.22C27.2669 22.8363 27.1463 22.4107 27.1231 21.9743C27.0999 21.5379 27.1746 21.1019 27.3419 20.6982C27.5091 20.2945 27.7646 19.9333 28.0896 19.6412C28.4146 19.3491 28.8008 19.1334 29.22 19.01L29.9 18.81C32.7 17.984 32.7 14.016 29.9 13.19L29.22 12.99C28.8008 12.8666 28.4146 12.6509 28.0896 12.3588C27.7646 12.0667 27.5091 11.7055 27.3419 11.3018C27.1746 10.8981 27.0999 10.4621 27.1231 10.0257C27.1463 9.58933 27.2669 9.16369 27.476 8.78L27.816 8.16C29.212 5.594 26.406 2.788 23.842 4.186L23.22 4.524C22.8363 4.73312 22.4107 4.8537 21.9743 4.87691C21.5379 4.90012 21.1019 4.82537 20.6982 4.65813C20.2945 4.49089 19.9333 4.23541 19.6412 3.91042C19.3491 3.58544 19.1334 3.19919 19.01 2.78L18.81 2.1ZM16 21.86C14.4458 21.86 12.9553 21.2426 11.8564 20.1436C10.7574 19.0447 10.14 17.5542 10.14 16C10.14 14.4458 10.7574 12.9553 11.8564 11.8564C12.9553 10.7574 14.4458 10.14 16 10.14C17.5536 10.14 19.0436 10.7572 20.1422 11.8558C21.2408 12.9544 21.858 14.4444 21.858 15.998C21.858 17.5516 21.2408 19.0416 20.1422 20.1402C19.0436 21.2388 17.5536 21.856 16 21.856V21.86Z" fill="#CECECE"/>
</svg>
