<svg width="36" height="36" viewBox="0 0 36 36" fill="none" xmlns="http://www.w3.org/2000/svg">
<g clip-path="url(#clip0_7_224)">
<path d="M18 0C14.8355 0 11.7421 0.938383 9.11088 2.69649C6.4797 4.45459 4.42894 6.95345 3.21793 9.87706C2.00693 12.8007 1.69008 16.0177 2.30744 19.1214C2.92481 22.2251 4.44866 25.0761 6.6863 27.3137C8.92394 29.5513 11.7749 31.0752 14.8786 31.6926C17.9823 32.3099 21.1993 31.9931 24.1229 30.7821C27.0466 29.5711 29.5454 27.5203 31.3035 24.8891C33.0616 22.2579 34 19.1645 34 16C34 11.7565 32.3143 7.68687 29.3137 4.68629C26.3131 1.68571 22.2435 0 18 0ZM25.65 21.59C24.65 24.59 22.04 25.43 19.75 25.59V27.59C19.75 27.9215 19.6183 28.2395 19.3839 28.4739C19.1495 28.7083 18.8315 28.84 18.5 28.84C18.1685 28.84 17.8505 28.7083 17.6161 28.4739C17.3817 28.2395 17.25 27.9215 17.25 27.59V25.59C14.9537 25.3747 12.7756 24.4721 11 23C10.8798 22.8877 10.783 22.7529 10.7149 22.6032C10.6469 22.4534 10.609 22.2918 10.6034 22.1274C10.5979 21.9631 10.6247 21.7992 10.6825 21.6452C10.7402 21.4913 10.8277 21.3502 10.94 21.23C11.0523 21.1098 11.1871 21.013 11.3369 20.9449C11.4866 20.8769 11.6482 20.839 11.8126 20.8334C11.9769 20.8279 12.1408 20.8547 12.2948 20.9125C12.4487 20.9702 12.5898 21.0577 12.71 21.17C14.0187 22.2239 15.5935 22.8953 17.26 23.11V16.83C15.9319 16.6254 14.6613 16.1451 13.53 15.42C12.579 14.8235 11.8671 13.9126 11.5181 12.8457C11.1692 11.7787 11.2052 10.6231 11.62 9.58C12.21 8.07 14.04 6.35 17.26 6.07V4.25C17.26 3.91848 17.3917 3.60054 17.6261 3.36612C17.8605 3.1317 18.1785 3 18.51 3C18.8415 3 19.1595 3.1317 19.3939 3.36612C19.6283 3.60054 19.76 3.91848 19.76 4.25V6.11C21.5475 6.30803 23.2444 7.00064 24.66 8.11C24.8562 8.34084 24.9619 8.63508 24.9574 8.938C24.9529 9.24092 24.8386 9.5319 24.6357 9.75684C24.4327 9.98178 24.155 10.1254 23.8541 10.1609C23.5533 10.1964 23.2498 10.1215 23 9.95C22.0452 9.25168 20.9319 8.80153 19.76 8.64V14.77C20.36 14.9 21 15.04 21.67 15.25C22.445 15.4432 23.1722 15.7931 23.8068 16.2781C24.4415 16.7631 24.97 17.3729 25.36 18.07C25.9169 19.1592 26.0211 20.4243 25.65 21.59Z" fill="#CECECE"/>
<path d="M20.92 17.64C20.52 17.52 20.13 17.42 19.75 17.34V23.1C21.75 22.9 22.82 22.2 23.28 20.8C23.4333 20.2735 23.3797 19.7083 23.13 19.22C22.886 18.8223 22.5646 18.4775 22.185 18.2061C21.8055 17.9347 21.3753 17.7422 20.92 17.64Z" fill="#CECECE"/>
<path d="M13.94 10.48C13.7314 10.9984 13.7177 11.5749 13.9016 12.1026C14.0854 12.6303 14.4544 13.0735 14.94 13.35C15.647 13.803 16.4347 14.1153 17.26 14.27V8.55C15.16 8.8 14.19 9.84 13.94 10.48Z" fill="#CECECE"/>
</g>
<defs>
<clipPath id="clip0_7_224">
<rect width="36" height="36" fill="white"/>
</clipPath>
</defs>
</svg>
