<svg width="28" height="28" viewBox="0 0 28 28" fill="none" xmlns="http://www.w3.org/2000/svg">
<path d="M16.3334 2.33333H7.00008C6.38124 2.33333 5.78775 2.57916 5.35017 3.01675C4.91258 3.45433 4.66675 4.04782 4.66675 4.66666V23.3333C4.66675 23.9522 4.91258 24.5457 5.35017 24.9832C5.78775 25.4208 6.38124 25.6667 7.00008 25.6667H21.0001C21.6189 25.6667 22.2124 25.4208 22.65 24.9832C23.0876 24.5457 23.3334 23.9522 23.3334 23.3333V9.33333L16.3334 2.33333ZM18.4334 23.3333H16.3334L14.0001 19.3667L11.6667 23.3333H9.56675L12.9501 18.0833L9.56675 12.8333H11.6667L14.0001 16.8L16.3334 12.8333H18.4334L15.0501 18.0833L18.4334 23.3333ZM15.1667 10.5V4.08333L21.5834 10.5H15.1667Z" fill="#F0F0F0"/>
</svg>
