<svg width="59" height="50" viewBox="0 0 59 50" fill="none" xmlns="http://www.w3.org/2000/svg">
<path d="M5.36364 50C3.88864 50 2.6255 49.51 1.57423 48.53C0.522959 47.55 -0.00178333 46.3733 4.55317e-06 45V15C4.55317e-06 13.625 0.525641 12.4475 1.57691 11.4675C2.62819 10.4875 3.89043 9.99833 5.36364 10H13.8114L18.7727 5H34.8636V15H42.9091V22.5H53.6364V45C53.6364 46.375 53.1107 47.5525 52.0595 48.5325C51.0082 49.5125 49.7459 50.0017 48.2727 50H5.36364ZM26.8182 41.25C30.1705 41.25 33.0203 40.1558 35.3678 37.9675C37.7153 35.7792 38.8882 33.1233 38.8864 30C38.8864 26.875 37.7126 24.2183 35.3651 22.03C33.0177 19.8417 30.1687 18.7483 26.8182 18.75C23.4659 18.75 20.616 19.8442 18.2685 22.0325C15.9211 24.2208 14.7482 26.8767 14.75 30C14.75 33.125 15.9237 35.7817 18.2712 37.97C20.6187 40.1583 23.4677 41.2517 26.8182 41.25ZM26.8182 36.25C24.9409 36.25 23.3542 35.6458 22.058 34.4375C20.7617 33.2292 20.1136 31.75 20.1136 30C20.1136 28.25 20.7617 26.7708 22.058 25.5625C23.3542 24.3542 24.9409 23.75 26.8182 23.75C28.6955 23.75 30.2822 24.3542 31.5784 25.5625C32.8746 26.7708 33.5227 28.25 33.5227 30C33.5227 31.75 32.8746 33.2292 31.5784 34.4375C30.2822 35.6458 28.6955 36.25 26.8182 36.25ZM48.2727 15V10H42.9091V5H48.2727V0H53.6364V5H59V10H53.6364V15H48.2727Z" fill="#CECECE"/>
</svg>
