<svg width="28" height="28" viewBox="0 0 28 28" fill="none" xmlns="http://www.w3.org/2000/svg">
<path d="M9.66534 18.242C9.91034 18.0985 10.1781 17.9585 10.4686 17.8255C10.2232 18.1914 9.96039 18.5453 9.68109 18.886C9.19109 19.4758 8.80959 19.789 8.56984 19.887C8.54994 19.8954 8.52947 19.9024 8.50859 19.908C8.49113 19.8838 8.4759 19.858 8.46309 19.831C8.36509 19.6385 8.36859 19.453 8.53309 19.201C8.71859 18.9123 9.09134 18.5815 9.66534 18.242ZM13.9616 15.3598C13.7533 15.4035 13.5468 15.4473 13.3386 15.4963C13.6471 14.8919 13.9389 14.2792 14.2136 13.6588C14.4901 14.1715 14.7878 14.6724 15.1061 15.1603C14.7263 15.2163 14.3431 15.2828 13.9616 15.3598ZM18.3803 17.003C18.1086 16.7837 17.8541 16.5438 17.6191 16.2855C18.0181 16.2943 18.3786 16.324 18.6901 16.38C19.2448 16.4798 19.5056 16.6373 19.5966 16.7458C19.6253 16.7761 19.6415 16.816 19.6421 16.8578C19.636 16.9812 19.5999 17.1013 19.5371 17.2078C19.5018 17.293 19.4452 17.3677 19.3726 17.4248C19.3365 17.4469 19.2939 17.4562 19.2518 17.451C19.0943 17.4458 18.8003 17.3355 18.3803 17.003ZM14.4866 8.6975C14.4166 9.1245 14.2976 9.6145 14.1366 10.1483C14.0773 9.94839 14.0253 9.74643 13.9808 9.54275C13.8478 8.925 13.8286 8.44025 13.9003 8.10425C13.9668 7.7945 14.0928 7.67025 14.2433 7.609C14.3241 7.57342 14.4096 7.54984 14.4971 7.539C14.5198 7.5915 14.5461 7.7 14.5531 7.8855C14.5618 8.099 14.5408 8.37025 14.4866 8.69925V8.6975Z" fill="#F0F0F0"/>
<path fill-rule="evenodd" clip-rule="evenodd" d="M7 0H21C21.9283 0 22.8185 0.368749 23.4749 1.02513C24.1313 1.6815 24.5 2.57174 24.5 3.5V24.5C24.5 25.4283 24.1313 26.3185 23.4749 26.9749C22.8185 27.6313 21.9283 28 21 28H7C6.07174 28 5.1815 27.6313 4.52513 26.9749C3.86875 26.3185 3.5 25.4283 3.5 24.5V3.5C3.5 2.57174 3.86875 1.6815 4.52513 1.02513C5.1815 0.368749 6.07174 0 7 0ZM7.28875 20.419C7.44625 20.734 7.69125 21.0192 8.05525 21.1523C8.4175 21.2835 8.77625 21.2222 9.07025 21.0998C9.62675 20.8722 10.1815 20.3368 10.6908 19.7243C11.2735 19.0225 11.886 18.102 12.4775 17.0817C13.6194 16.7432 14.7888 16.5055 15.9722 16.3713C16.4972 17.0415 17.0397 17.619 17.5647 18.0338C18.0547 18.4188 18.62 18.739 19.1992 18.7635C19.5148 18.7791 19.8272 18.6946 20.0917 18.522C20.363 18.3452 20.5643 18.0898 20.7113 17.794C20.8687 17.4773 20.965 17.1465 20.9527 16.8088C20.9417 16.4758 20.8183 16.1563 20.6027 15.9023C20.2072 15.4297 19.5597 15.2022 18.9227 15.0885C18.15 14.9688 17.366 14.9395 16.5865 15.001C15.9283 14.0704 15.3543 13.083 14.8715 12.0505C15.309 10.8955 15.6362 9.8035 15.7815 8.911C15.8445 8.5295 15.8778 8.1655 15.8655 7.8365C15.8633 7.50993 15.7873 7.18807 15.6433 6.895C15.5602 6.73326 15.4422 6.59203 15.2979 6.48154C15.1535 6.37106 14.9863 6.2941 14.8085 6.25625C14.455 6.181 14.091 6.25625 13.7568 6.391C13.097 6.6535 12.7487 7.2135 12.6175 7.83125C12.4897 8.42625 12.5475 9.11925 12.698 9.81925C12.852 10.5297 13.1145 11.3033 13.4505 12.0855C12.913 13.4221 12.2923 14.7238 11.592 15.9828C10.6901 16.2665 9.82079 16.6449 8.9985 17.1115C8.351 17.4965 7.77525 17.9515 7.42875 18.4887C7.06125 19.0592 6.9475 19.7383 7.28875 20.419Z" fill="#F0F0F0"/>
</svg>
