<svg width="32" height="25" viewBox="0 0 32 25" fill="none" xmlns="http://www.w3.org/2000/svg">
<path d="M22.4 21.6667V25H0V21.6667C0 21.6667 0 15 11.2 15C22.4 15 22.4 21.6667 22.4 21.6667ZM16.8 5.8334C16.8 4.67968 16.4716 3.55187 15.8562 2.59259C15.2409 1.6333 14.3663 0.885632 13.343 0.444122C12.3198 0.00261276 11.1938 -0.112906 10.1075 0.112173C9.0212 0.337253 8.02338 0.892822 7.2402 1.70863C6.45703 2.52443 5.92368 3.56383 5.7076 4.69538C5.49153 5.82693 5.60242 6.99981 6.02628 8.06571C6.45013 9.13161 7.16789 10.0427 8.08881 10.6836C9.00972 11.3246 10.0924 11.6667 11.2 11.6667C12.6852 11.6667 14.1096 11.0521 15.1598 9.95817C16.21 8.86422 16.8 7.38049 16.8 5.8334ZM22.304 15C23.2876 15.7929 24.0924 16.8007 24.6619 17.9525C25.2313 19.1043 25.5515 20.3721 25.6 21.6667V25H32V21.6667C32 21.6667 32 15.6167 22.304 15ZM20.8 8.76314e-05C19.6987 -0.0063002 18.6216 0.336679 17.712 0.983418C18.6839 2.39797 19.2065 4.09388 19.2065 5.8334C19.2065 7.57292 18.6839 9.26883 17.712 10.6834C18.6216 11.3301 19.6987 11.6731 20.8 11.6667C22.2852 11.6667 23.7096 11.0521 24.7598 9.95817C25.81 8.86422 26.4 7.38049 26.4 5.8334C26.4 4.28631 25.81 2.80258 24.7598 1.70863C23.7096 0.614667 22.2852 8.76314e-05 20.8 8.76314e-05Z" fill="#CECECE"/>
</svg>
