<svg width="32" height="28" viewBox="0 0 32 28" fill="none" xmlns="http://www.w3.org/2000/svg">
<path d="M3.55556 10.5L6.22222 2.625H25.7778L28.4444 10.5M25.7778 19.25C25.0705 19.25 24.3923 18.9734 23.8922 18.4812C23.3921 17.9889 23.1111 17.3212 23.1111 16.625C23.1111 15.9288 23.3921 15.2611 23.8922 14.7688C24.3923 14.2766 25.0705 14 25.7778 14C26.485 14 27.1633 14.2766 27.6634 14.7688C28.1635 15.2611 28.4444 15.9288 28.4444 16.625C28.4444 17.3212 28.1635 17.9889 27.6634 18.4812C27.1633 18.9734 26.485 19.25 25.7778 19.25ZM6.22222 19.25C5.51498 19.25 4.8367 18.9734 4.3366 18.4812C3.83651 17.9889 3.55556 17.3212 3.55556 16.625C3.55556 15.9288 3.83651 15.2611 4.3366 14.7688C4.8367 14.2766 5.51498 14 6.22222 14C6.92947 14 7.60774 14.2766 8.10784 14.7688C8.60794 15.2611 8.88889 15.9288 8.88889 16.625C8.88889 17.3212 8.60794 17.9889 8.10784 18.4812C7.60774 18.9734 6.92947 19.25 6.22222 19.25ZM28.3022 1.75C27.9467 0.735 26.9511 0 25.7778 0H6.22222C5.04889 0 4.05333 0.735 3.69778 1.75L0 12.25V26.25C0 26.7141 0.187301 27.1593 0.520699 27.4874C0.854097 27.8156 1.30628 28 1.77778 28H3.55556C4.02705 28 4.47924 27.8156 4.81263 27.4874C5.14603 27.1593 5.33333 26.7141 5.33333 26.25V24.5H26.6667V26.25C26.6667 26.7141 26.854 27.1593 27.1874 27.4874C27.5208 27.8156 27.9729 28 28.4444 28H30.2222C30.6937 28 31.1459 27.8156 31.4793 27.4874C31.8127 27.1593 32 26.7141 32 26.25V12.25L28.3022 1.75Z" fill="#CECECE"/>
</svg>
