<svg width="50" height="50" viewBox="0 0 377 359" fill="none" xmlns="http://www.w3.org/2000/svg">
<path d="M313.352 207H373.654C374.264 206.998 374.863 206.827 375.385 206.505C375.907 206.183 376.332 205.722 376.616 205.172C376.899 204.623 377.03 204.005 376.994 203.385C376.958 202.766 376.756 202.168 376.411 201.656L346.26 157.377C345.01 155.541 342.002 155.541 340.749 157.377L310.598 201.656C310.249 202.167 310.045 202.765 310.006 203.385C309.968 204.006 310.098 204.626 310.382 205.176C310.666 205.727 311.093 206.189 311.617 206.51C312.14 206.832 312.74 207.001 313.352 207Z" fill="#F0F0F0"/>
<path d="M345.66 196.225C341.842 234.157 325.161 269.64 298.388 296.78C271.615 323.92 236.362 341.083 198.486 345.417C160.61 349.751 122.391 340.996 90.179 320.606C57.9673 300.215 33.7015 269.418 21.4132 233.329C9.12502 197.241 9.55412 158.034 22.6294 122.223C35.7046 86.4131 60.6388 56.1533 93.289 36.473C125.94 16.7926 164.341 8.87595 202.113 14.0381C239.885 19.2003 274.754 37.1307 300.927 64.8503" stroke="#F0F0F0" stroke-width="25" stroke-linecap="round"/>
<path d="M133.2 300.1C128.2 300.1 124.3 298.7 121.5 295.9C118.9 293.1 117.6 289.2 117.6 284.2V102.4C117.6 97.2 119 93.3 121.8 90.7C124.6 87.9 128.5 86.5 133.5 86.5H205.2C228 86.5 245.6 92.2 258 103.6C270.4 114.8 276.6 130.6 276.6 151C276.6 171.6 270.4 187.6 258 199C245.6 210.2 228 215.8 205.2 215.8H148.8V284.2C148.8 289.2 147.5 293.1 144.9 295.9C142.3 298.7 138.4 300.1 133.2 300.1ZM148.8 190.9H200.7C215.7 190.9 227 187.6 234.6 181C242.4 174.2 246.3 164.2 246.3 151C246.3 138 242.4 128.2 234.6 121.6C227 114.8 215.7 111.4 200.7 111.4H148.8V190.9Z" fill="#F0F0F0"/>
</svg>
